<svg xmlns="http://www.w3.org/2000/svg" viewBox="403 -2079 75 75"><g transform="translate(402.996 -2079)"><g transform="translate(0.004)"><path d="M13.754,194.851a1.25,1.25,0,0,0,.884-2.134L4.568,182.652a7.184,7.184,0,0,1-2.064-5.3V158.6a2.5,2.5,0,0,1,5,0v9.9a1.25,1.25,0,0,0,2.5,0v-9.9a5,5,0,0,0-10,0v18.75a9.653,9.653,0,0,0,2.866,7.134l10,10A1.246,1.246,0,0,0,13.754,194.851Z" transform="translate(-0.004 -131.101)"/><path d="M72.455,460.8h-20a1.25,1.25,0,0,0-1.25,1.25v5a1.25,1.25,0,1,0,2.5,0V463.3h17.5v3.75a1.25,1.25,0,1,0,2.5,0v-5A1.25,1.25,0,0,0,72.455,460.8Z" transform="translate(-43.705 -393.3)"/><path d="M51.7,278.464a5.127,5.127,0,0,0,1.54,3.409l6.25,6.25a1.25,1.25,0,0,0,1.768-1.767L55.008,280.1a2.636,2.636,0,0,1-.809-1.741,2.251,2.251,0,0,1,2.3-2.3,2.644,2.644,0,0,1,1.743.81l8.808,8.805a7.321,7.321,0,0,1,2.076,5.311v6.25a1.25,1.25,0,0,0,2.5,0v-6.25a9.819,9.819,0,0,0-2.866-7.134l-8.75-8.75a5.127,5.127,0,0,0-3.408-1.54,4.75,4.75,0,0,0-4.9,4.9Z" transform="translate(-44.125 -233.489)"/><path d="M327.2,283.795a9.842,9.842,0,0,0-2.93,7.2v6.25a1.25,1.25,0,1,0,2.5,0v-6.25a7.329,7.329,0,0,1,2.134-5.366l8.749-8.75a2.645,2.645,0,0,1,1.744-.81,2.255,2.255,0,0,1,2.3,2.211,2.6,2.6,0,0,1-.813,1.831l-6.25,6.25a1.25,1.25,0,1,0,1.767,1.768l6.25-6.249a5.091,5.091,0,0,0,1.545-3.6,4.755,4.755,0,0,0-4.9-4.709,5.13,5.13,0,0,0-3.409,1.54Z" transform="translate(-276.77 -233.49)"/><path d="M147.4,13.75a13.752,13.752,0,0,0-26.219-5.8A1.25,1.25,0,0,0,123.451,9,11.252,11.252,0,0,1,144.9,13.75c0,7.339-7.466,19-20,26.07-12.534-7.07-20-18.731-20-26.07A11.257,11.257,0,0,1,120.658,3.438a1.25,1.25,0,1,0,1-2.29A13.756,13.756,0,0,0,102.4,13.75c0,8.071,7.675,20.838,21.9,28.6a1.251,1.251,0,0,0,1.2,0C139.728,34.587,147.4,21.823,147.4,13.75Z" transform="translate(-87.404)"/><path d="M419.6,153.6a5.006,5.006,0,0,0-5,5v9.9a1.25,1.25,0,0,0,2.5,0v-9.9a2.5,2.5,0,0,1,5,0v18.75a7.194,7.194,0,0,1-2.134,5.366l-10,10a1.25,1.25,0,1,0,1.768,1.768l9.923-9.929a9.674,9.674,0,0,0,2.944-7.2V158.6A5.005,5.005,0,0,0,419.6,153.6Z" transform="translate(-349.6 -131.1)"/><path d="M328.454,460.8h-20a1.25,1.25,0,0,0-1.25,1.25v5a1.25,1.25,0,1,0,2.5,0V463.3h17.5v3.75a1.25,1.25,0,1,0,2.5,0v-5A1.25,1.25,0,0,0,328.454,460.8Z" transform="translate(-262.204 -393.3)"/><path d="M325.166,39.5a6.317,6.317,0,0,1,3.8,3.807,1.25,1.25,0,1,0,2.356-.836A8.72,8.72,0,0,0,326,37.139a1.25,1.25,0,1,0-.836,2.356Z" transform="translate(-276.823 -31.638)"/></g></g></svg>