<svg xmlns="http://www.w3.org/2000/svg" viewBox="602 -2073 85.715 80"><g transform="translate(602 -2090.067)"><g transform="translate(0 17.068)"><path d="M344.534,443.769a1.425,1.425,0,0,0-1.731,1.039l-1.428,5.714a1.427,1.427,0,0,0,1.04,1.733,1.386,1.386,0,0,0,.347.043,1.429,1.429,0,0,0,1.384-1.081l1.428-5.714A1.429,1.429,0,0,0,344.534,443.769Z" transform="translate(-284.188 -372.298)"/><path d="M42.857,166.495a1.415,1.415,0,0,0,.546-.108l15.714-6.5a1.429,1.429,0,0,0-1.094-2.64L42.857,163.52l-40-16.551v-.474a1.429,1.429,0,0,0-2.857,0v1.429a1.427,1.427,0,0,0,.883,1.32l41.429,17.143A1.414,1.414,0,0,0,42.857,166.495Z" transform="translate(0 -123.638)"/><path d="M130.9,252.179a1.427,1.427,0,0,0-1.913-.649,33.3,33.3,0,0,1-13.653,3.114V241.828a1.429,1.429,0,0,0-2.857,0v12.8c-17.739-.566-23.463-11.311-24.286-13.1v-9.7a1.429,1.429,0,0,0-2.857,0v10a1.445,1.445,0,0,0,.1.531c.249.619,6.329,15.183,28.47,15.183a36.714,36.714,0,0,0,16.347-3.451A1.425,1.425,0,0,0,130.9,252.179Z" transform="translate(-71.049 -194.686)"/><path d="M376.9,452.266a1.428,1.428,0,0,0-1.429,1.428v4.286a1.429,1.429,0,1,0,2.857,0v-4.286A1.428,1.428,0,0,0,376.9,452.266Z" transform="translate(-312.609 -379.409)"/><path d="M84.286,38.5a1.428,1.428,0,0,0-1.429,1.429V40.4L65.715,47.452V44.87l19.117-7.912a1.429,1.429,0,0,0,0-2.64L43.4,17.176a1.43,1.43,0,0,0-1.091,0L.883,34.319a1.428,1.428,0,0,0,0,2.64L42.312,54.1a1.425,1.425,0,0,0,1.092,0l14.98-6.2a1.428,1.428,0,1,0-1.092-2.639L42.857,51.236,5.164,35.639l37.693-15.6,37.693,15.6-16.4,6.787L48.439,36.56a3.411,3.411,0,0,0,.133-.921c0-2.4-2.51-4.286-5.714-4.286s-5.714,1.883-5.714,4.286,2.51,4.286,5.714,4.286a6.905,6.905,0,0,0,3.7-1.019l16.3,6.087V80.188a4.286,4.286,0,1,0,2.857,0V72.079a17.356,17.356,0,0,0,5.636-7.4,1.445,1.445,0,0,0,.079-.467v-10a1.429,1.429,0,1,0-2.857,0v9.736a14.613,14.613,0,0,1-2.857,4.316V50.542L84.83,42.675a1.428,1.428,0,0,0,.884-1.321V39.925A1.428,1.428,0,0,0,84.286,38.5ZM42.857,37.067c-1.744,0-2.857-.846-2.857-1.429s1.113-1.429,2.857-1.429,2.857.846,2.857,1.429S44.6,37.067,42.857,37.067ZM64.286,85.639a1.429,1.429,0,1,1,1.429-1.429A1.43,1.43,0,0,1,64.286,85.639Z" transform="translate(0 -17.068)"/><path d="M403.88,444.81a1.428,1.428,0,0,0-2.771.694l1.429,5.714a1.429,1.429,0,0,0,1.384,1.081,1.386,1.386,0,0,0,.347-.043,1.428,1.428,0,0,0,1.04-1.733Z" transform="translate(-333.923 -372.3)"/></g></g></svg>