<svg xmlns="http://www.w3.org/2000/svg" viewBox="831 -2076 75 75"><g transform="translate(831 -2080.27)"><g transform="translate(10.424 61.563)"><ellipse cx="1.465" cy="1.49" rx="1.465" ry="1.49"/></g><g transform="translate(32.144 4.27)"><path d="M254.851,17.481h-8.619a7.938,7.938,0,0,0-5.126,1.877V14.879A10.534,10.534,0,0,0,230.674,4.27H220.9a1.477,1.477,0,0,0-1.465,1.49V9.851A10.534,10.534,0,0,0,229.868,20.46h8.308v15.1c-.386-.025-.775-.039-1.166-.039a17.88,17.88,0,0,0-10.643,3.49,1.506,1.506,0,0,0-.331,2.08,1.449,1.449,0,0,0,2.045.337,15.038,15.038,0,0,1,11.241-2.746,1.465,1.465,0,0,0,.193.03,15.319,15.319,0,0,1,10.874,7.811,1.461,1.461,0,0,0,1.283.768,1.439,1.439,0,0,0,.709-.187,1.5,1.5,0,0,0,.571-2.025A18.277,18.277,0,0,0,241.106,36V31.182h7.154a8.134,8.134,0,0,0,8.056-8.192V18.97A1.477,1.477,0,0,0,254.851,17.481Zm-16.675,0h-8.308a7.576,7.576,0,0,1-7.5-7.63v-2.6h8.308a7.576,7.576,0,0,1,7.5,7.63Zm15.21,5.509A5.176,5.176,0,0,1,248.26,28.2h-7.154V25.673a5.176,5.176,0,0,1,5.126-5.213h7.154Z" transform="translate(-219.436 -4.27)"/></g><g transform="translate(0 42.366)"><path d="M74.511,270.251a5.71,5.71,0,0,0-7.57-2.983l-.022.01-9.571,4.489a1.5,1.5,0,0,0-.717,1.977,1.455,1.455,0,0,0,1.944.729l9.559-4.483a2.8,2.8,0,0,1,3.7,1.465,2.881,2.881,0,0,1-1.436,3.769l-19.586,8.794a11.182,11.182,0,0,1-9.665-.223l-7.17-3.622a14.061,14.061,0,0,0-12.151-.28l-.141.063-5.358-12.341,7.439-3.34a14.574,14.574,0,0,1,11.135-.362L49.315,269.3a2.67,2.67,0,0,1,1.563,3.336,2.593,2.593,0,0,1-3.291,1.648l-11.149-3.835a1.459,1.459,0,0,0-1.857.934,1.5,1.5,0,0,0,.918,1.888L46.648,277.1a5.412,5.412,0,0,0,1.764.3,5.55,5.55,0,0,0,5.238-3.8,5.681,5.681,0,0,0-3.325-7.1l-14.417-5.384a17.446,17.446,0,0,0-13.328.433l-7.487,3.362a3.7,3.7,0,0,0-1.763-1.457,3.628,3.628,0,0,0-2.836.065L.877,267.8A1.491,1.491,0,0,0,0,269.169v26.245a1.5,1.5,0,0,0,.7,1.269,1.444,1.444,0,0,0,1.428.061L20.8,287.152a3.723,3.723,0,0,0,1.923-2.071,3.806,3.806,0,0,0,.113-2.384l.175-.078a11.183,11.183,0,0,1,9.665.223l7.17,3.622a14.06,14.06,0,0,0,12.151.28l19.586-8.794A5.884,5.884,0,0,0,74.511,270.251ZM19.987,284a.784.784,0,0,1-.413.44l-.069.033L2.93,292.993v-6.521l4.333-2.164a1.5,1.5,0,0,0,.669-1.994,1.454,1.454,0,0,0-1.961-.68L2.93,283.152V270.143l8.743-3.9a.765.765,0,0,1,.6-.014.783.783,0,0,1,.433.42l6.89,15.87,0,0,.377.869A.8.8,0,0,1,19.987,284Z" transform="translate(0 -260)"/></g></g></svg>