<svg xmlns="http://www.w3.org/2000/svg" viewBox="1028 -2069 94.764 75"><defs><style>.a{fill:#f4b333;}</style></defs><g transform="translate(1028 -2078.803)"><path class="a" d="M94.764,35.275a24.825,24.825,0,0,1-1.3,7.908C89.441,61.4,54.634,83.428,53.153,84.366a2.856,2.856,0,0,1-1.511.438,2.733,2.733,0,0,1-1.517-.437A193.167,193.167,0,0,1,29.978,69.412a2.826,2.826,0,0,1,3.667-4.3A194.834,194.834,0,0,0,51.656,78.624C62.11,71.808,85.188,54.468,88.016,41.68a20.154,20.154,0,0,0,1.073-6.4A19.937,19.937,0,0,0,78.771,17.822,20.33,20.33,0,0,0,53.817,22.56a2.927,2.927,0,0,1-4.355,0,20.356,20.356,0,0,0-24.954-4.746A19.929,19.929,0,0,0,14.17,35.27a19.677,19.677,0,0,0,1,6.128,22.076,22.076,0,0,0,2.243,5.581H33.905l5.662-13.013a2.818,2.818,0,0,1,5.331.475l4.168,17.623,5.392-8.842a2.814,2.814,0,0,1,2.41-1.353H67.1a2.825,2.825,0,0,1,0,5.65H58.455L50.332,60.862a2.816,2.816,0,0,1-2.4,1.359,2.93,2.93,0,0,1-.442-.033,2.83,2.83,0,0,1-2.307-2.135L41.371,44l-3.01,6.928a2.814,2.814,0,0,1-2.593,1.7H2.825a2.825,2.825,0,0,1,0-5.649h8.283A24.542,24.542,0,0,1,9.751,42.9a23.81,23.81,0,0,1-1.215-7.629,25.572,25.572,0,0,1,13.253-22.4,26.139,26.139,0,0,1,29.865,3.767,26.107,26.107,0,0,1,29.851-3.767A25.593,25.593,0,0,1,94.764,35.275Z" transform="translate(0 0)"/></g></svg>