<svg xmlns="http://www.w3.org/2000/svg" viewBox="1448 -2070 75 74.998"><defs><style>.a{fill:#555454;}</style></defs><g transform="translate(1448 -2070.005)"><g transform="translate(0 0.005)"><path class="a" d="M37.486,0a37.489,37.489,0,1,0,11.871,73.05,6.326,6.326,0,0,0,9.1-.021c.069-.072,12.621-13.113,12.685-13.189a11.082,11.082,0,0,0,2.229-11.5A37.515,37.515,0,0,0,37.486,0ZM71.243,35.654H55.712a73.794,73.794,0,0,0-1.19-11.793,74.568,74.568,0,0,0,12.741-2.389A33.739,33.739,0,0,1,71.243,35.654ZM65.267,18.221a77.067,77.067,0,0,1-11.525,2.021c-1.612-6.549-4.062-11.779-7.037-15.281A33.77,33.77,0,0,1,65.267,18.221ZM22.934,35.654a69.858,69.858,0,0,1,1.188-11.436,167.425,167.425,0,0,0,26.729,0,69.825,69.825,0,0,1,1.188,11.436Zm29.1,3.674c-.036,1.53-.117,3.045-.244,4.539a11.041,11.041,0,0,0-17.922,6.4c-3.355.07-6.621.237-9.749.5a69.849,69.849,0,0,1-1.188-11.438ZM37.486,3.679c5,0,9.926,6.711,12.556,16.91a161.83,161.83,0,0,1-25.113,0C27.56,10.391,32.485,3.679,37.486,3.679Zm-9.22,1.282c-2.975,3.5-5.425,8.732-7.037,15.281A77.068,77.068,0,0,1,9.7,18.221,33.768,33.768,0,0,1,28.266,4.961ZM7.708,21.472A74.593,74.593,0,0,0,20.45,23.861a73.8,73.8,0,0,0-1.19,11.793H3.729A33.736,33.736,0,0,1,7.708,21.472ZM3.729,39.328H19.26a73.8,73.8,0,0,0,1.191,11.8A74.909,74.909,0,0,0,7.709,53.51,33.736,33.736,0,0,1,3.729,39.328ZM9.705,56.762a78.109,78.109,0,0,1,11.523-2.025c1.612,6.551,4.062,11.782,7.038,15.284A33.768,33.768,0,0,1,9.705,56.762Zm15.223-2.374c2.854-.228,5.823-.378,8.873-.444a10.952,10.952,0,0,0,2.85,5.9c.064.076,7.3,7.6,7.371,7.667C36.064,77.1,28.186,67.023,24.928,54.388Zm43.477,3.007c-2.083,2.172,4.137-4.294-12.593,13.093a2.655,2.655,0,0,1-3.83,0c-.65-.676-11.867-12.331-12.591-13.09a7.353,7.353,0,1,1,12.67-5.079,1.837,1.837,0,1,0,3.674,0,7.349,7.349,0,0,1,7.353-7.354h.022A7.364,7.364,0,0,1,68.405,57.395Zm2.211-13.118a11,11,0,0,0-15.182.1q.22-2.494.278-5.053H71.247A33.843,33.843,0,0,1,70.617,44.277Z" transform="translate(0 -0.005)"/></g></g></svg>