<svg xmlns="http://www.w3.org/2000/svg" viewBox="1250 -2069 75 70"><g transform="translate(1250 -2085)"><g transform="translate(0 16)"><path d="M71.25,49.75V22.25A6.257,6.257,0,0,0,65,16H10a6.257,6.257,0,0,0-6.25,6.25V41A3.755,3.755,0,0,0,0,44.75v37.5A3.755,3.755,0,0,0,3.75,86h27.5A3.755,3.755,0,0,0,35,82.25H45.476a3.75,3.75,0,0,0,3.617-4.736L46.636,68.5H53.75V82.25A3.755,3.755,0,0,0,57.5,86H71.25A3.755,3.755,0,0,0,75,82.25V53.5A3.755,3.755,0,0,0,71.25,49.75ZM32.5,82.25a1.252,1.252,0,0,1-1.25,1.25H3.75A1.252,1.252,0,0,1,2.5,82.25v-2.5h30Zm0-5H2.5V49.75h30Zm0-30H2.5v-2.5A1.252,1.252,0,0,1,3.75,43.5h27.5a1.252,1.252,0,0,1,1.25,1.25ZM46.683,78.171a1.25,1.25,0,0,1-1.206,1.579H35v-2.5H46.431ZM35,74.75V68.5h9.045l1.705,6.25ZM53.75,66H35V58.5H53.75Zm0-12.5V56H35V44.75A3.755,3.755,0,0,0,31.25,41h-25V22.25A3.755,3.755,0,0,1,10,18.5H65a3.755,3.755,0,0,1,3.75,3.75v27.5H57.5A3.755,3.755,0,0,0,53.75,53.5ZM72.5,82.25a1.252,1.252,0,0,1-1.25,1.25H57.5a1.252,1.252,0,0,1-1.25-1.25v-2.5H72.5Zm0-5H56.25V58.5H72.5ZM72.5,56H56.25V53.5a1.252,1.252,0,0,1,1.25-1.25H71.25A1.252,1.252,0,0,1,72.5,53.5Z" transform="translate(0 -16)"/></g><g transform="translate(6.616 62.615)"><rect width="7.071" height="2.5" transform="translate(0 5) rotate(-45)"/></g><g transform="translate(11.615 56.365)"><rect width="21.214" height="2.5" transform="translate(0 15) rotate(-45)"/></g><g transform="translate(14.115 52.617)"><rect width="10.606" height="2.5" transform="translate(0 7.5) rotate(-45)"/></g><g transform="translate(59.113 61.368)"><rect width="8.837" height="2.5" transform="translate(0 6.249) rotate(-45)"/></g><g transform="translate(61.613 66.373)"><rect width="8.837" height="2.5" transform="translate(0 6.249) rotate(-45)"/></g><g transform="translate(32.865 30.117)"><rect width="10.606" height="2.5" transform="translate(0 7.5) rotate(-45)"/></g><g transform="translate(44.115 27.617)"><rect width="10.606" height="2.5" transform="translate(0 7.5) rotate(-45)"/></g><g transform="translate(36.614 37.618)"><rect width="7.071" height="2.5" transform="translate(0 5) rotate(-45)"/></g><g transform="translate(42.857 22.62)"><rect width="7.089" height="2.5" transform="translate(0 5.012) rotate(-45)"/></g><g transform="translate(8.75 21)"><rect width="2.5" height="2.5"/></g><g transform="translate(13.75 21)"><rect width="2.5" height="2.5"/></g><g transform="translate(18.75 21)"><rect width="2.5" height="2.5"/></g></g></svg>